<?xml version="1.0" encoding="utf-8"?>
<!-- Generator: Adobe Illustrator 15.1.0, SVG Export Plug-In . SVG Version: 6.00 Build 0)  -->
<!DOCTYPE svg PUBLIC "-//W3C//DTD SVG 1.1//EN" "http://www.w3.org/Graphics/SVG/1.1/DTD/svg11.dtd">
<svg version="1.1" id="Layer_1" xmlns="http://www.w3.org/2000/svg" xmlns:xlink="http://www.w3.org/1999/xlink" x="0px" y="0px"
	 width="686.3px" height="155.52px" viewBox="-448.7 0 686.3 155.52" enable-background="new -448.7 0 686.3 155.52"
	 xml:space="preserve">
<g transform="matrix(1,0,0,0.99999897,-9.6901386,-462.70603)">
	<path fill="#FFFFFF" d="M191.9,491.063c-14.186-0.153-24.371,0.003-30.29,0.767c-11.347,1.465-23.358,14.653-28.692,23.966
		c-7.437,11.091-15.453,34.869-27.675,34.799c-12.221-0.068-19.283-26.921-30.112-26.812c-10.829,0.11-16.35,24.88-32.889,24.807
		c-16.54-0.074-29.462-42.146-32.959-57.515h-21.958c3.838,24.198,13.63,42.794,22.527,55.697
		c4.448,6.453,9.44,12.398,15.166,17.121s9.712,8.267,20.779,8.646c11.068,0.379,20.949-17.845,27.88-18.064
		c6.401-0.203,8.095,6.348,5.695,10.589c-2.4,4.241-8.8,11.431-11.101,18.043c-3.29,9.455-4.218,17.819-4.016,23.779l22.442-0.074
		c0.209-11.626,7.511-32.581,19.053-33.203c6.889-0.02,19.112,11.864,22.765,16.707c3.652,4.844,6.626,9.471,13.223,13.277
		c6.598,3.807,15.809,4.197,24.568,1.069c11.677-4.17,17.586-15.34,21.104-25.81c3.517-10.468,5.104-22.115,6.293-33.159
		c1.189-11.044,1.59-17.593,2.689-24.527c0.222-1.408,0.755-6.57,5.542-7.716s38.036-0.23,38.036-0.23l0.061-22.183
		C240.031,491.037,206.085,491.216,191.9,491.063L191.9,491.063z M174.575,513.635c-1.986,19.723-2.412,39.571-8.452,58.062
		c-1.462,4.321-6.922,16.148-13.169,12.445c-0.903-0.521-3.232-3.011-6.52-7.362c-3.717-4.918-9.198-12.162-17.477-17.614
		c6.081-6.061,10.882-13.538,14.886-20.111c4.631-7.603,7.83-14,7.848-14.032l0.011-0.022
		C156.256,515.898,166.449,511.618,174.575,513.635z"/>
</g>
<g>
	<path fill-rule="evenodd" clip-rule="evenodd" fill="#FFFFFF" d="M-440.116,28.303c26.548,0.584,50.614-2.655,64,10
		c17.125,16.19,15.996,65.233-4,79c-16.454,11.328-35.461,5.236-61,7C-440.45,92.636-442.449,58.303-440.116,28.303z
		 M-420.116,46.303c0,20.333,0,40.667,0,61C-373.197,122.694-372.392,30.645-420.116,46.303z"/>
	<path fill-rule="evenodd" clip-rule="evenodd" fill="#FFFFFF" d="M-25.116,28.303c0,32.333,0,64.667,0,97c-6.667,0-13.333,0-20,0
		c0-32.333,0-64.667,0-97C-38.449,28.303-31.783,28.303-25.116,28.303z"/>
	<path fill-rule="evenodd" clip-rule="evenodd" fill="#FFFFFF" d="M-299.116,52.303c0,8,0,16,0,24c-10.374-9.95-32.334-6.23-37,6
		c0,14.333,0,28.667,0,43c-7,0-14,0-21,0c0-24.667,0-49.333,0-74c6.333,0,12.667,0,19,0c-0.697,5.03,1.697,6.97,1,12
		C-329.809,54.184-314.585,44.193-299.116,52.303z"/>
	<path fill-rule="evenodd" clip-rule="evenodd" fill="#FFFFFF" d="M-194.116,113.303c0,12,0,24,0,36c-7,0-14,0-21,0
		c1.207-38.204-6.163-76.232,14-92c29.047-22.715,67.931,2.526,64,37C-139.913,118.833-177.274,142.033-194.116,113.303z
		 M-195.116,87.303c-1.087,26.894,39.055,26.089,38,0c-0.447-11.076-7.694-19.33-22-17
		C-189.189,71.943-194.696,76.905-195.116,87.303z"/>
	<path fill-rule="evenodd" clip-rule="evenodd" fill="#FFFFFF" d="M-52.116,125.303c-7,0-14,0-21,0c0-3.667,0-7.333,0-11
		c-18.038,27.319-62.299,4.093-57-33c4.405-30.836,45.76-42.24,67-21C-48.213,75.206-52.842,94.702-52.116,125.303z
		 M-110.116,83.303c-6.725,31.497,38.243,30.513,38,5c-0.13-13.668-10.326-20.528-23-18
		C-103.79,72.033-109.159,78.82-110.116,83.303z"/>
	<path fill-rule="evenodd" clip-rule="evenodd" fill="#FFFFFF" d="M-271.116,50.303c1.642,22.813-6.633,56.412,14,57
		c21.498,0.612,13.618-33.515,15-57c7,0,14,0,21,0c6.794,46.053-8.165,84.33-45,76c-25.574-5.783-28.281-36.657-26-73c0-1,0-2,0-3
		C-285.116,50.303-278.116,50.303-271.116,50.303z"/>
</g>
</svg>
